%TF.GenerationSoftware,KiCad,Pcbnew,8.0.4*%
%TF.CreationDate,2024-09-05T15:58:07-04:00*%
%TF.ProjectId,paddle_1,70616464-6c65-45f3-912e-6b696361645f,rev?*%
%TF.SameCoordinates,Original*%
%TF.FileFunction,Drillmap*%
%TF.FilePolarity,Positive*%
%FSLAX45Y45*%
G04 Gerber Fmt 4.5, Leading zero omitted, Abs format (unit mm)*
G04 Created by KiCad (PCBNEW 8.0.4) date 2024-09-05 15:58:07*
%MOMM*%
%LPD*%
G01*
G04 APERTURE LIST*
%ADD10C,0.050000*%
%ADD11C,0.200000*%
%ADD12C,0.100000*%
G04 APERTURE END LIST*
D10*
X9100000Y-10100000D02*
X9100000Y-9600000D01*
X9700000Y-9200000D02*
G75*
G02*
X9500000Y-9200000I-100000J0D01*
G01*
X9500000Y-9200000D02*
G75*
G02*
X9700000Y-9200000I100000J0D01*
G01*
X9300000Y-9400000D02*
X9300000Y-9000000D01*
X9450000Y-8600000D02*
G75*
G02*
X9250000Y-8600000I-100000J0D01*
G01*
X9250000Y-8600000D02*
G75*
G02*
X9450000Y-8600000I100000J0D01*
G01*
X9100000Y-9600000D02*
X9300000Y-9400000D01*
X18800000Y-8300000D02*
X18800000Y-10100000D01*
X9100000Y-8800000D02*
X9100000Y-8300000D01*
X9450000Y-9800000D02*
G75*
G02*
X9250000Y-9800000I-100000J0D01*
G01*
X9250000Y-9800000D02*
G75*
G02*
X9450000Y-9800000I100000J0D01*
G01*
X18800000Y-10100000D02*
X9100000Y-10100000D01*
X9300000Y-9000000D02*
X9100000Y-8800000D01*
X9100000Y-8300000D02*
X18800000Y-8300000D01*
D11*
D12*
X9950000Y-9023500D02*
X10050000Y-9123500D01*
X10050000Y-9023500D02*
X9950000Y-9123500D01*
X9950000Y-9277500D02*
X10050000Y-9377500D01*
X10050000Y-9277500D02*
X9950000Y-9377500D01*
D11*
X9358277Y-10413984D02*
X9358277Y-10213984D01*
X9358277Y-10213984D02*
X9405896Y-10213984D01*
X9405896Y-10213984D02*
X9434467Y-10223508D01*
X9434467Y-10223508D02*
X9453515Y-10242555D01*
X9453515Y-10242555D02*
X9463039Y-10261603D01*
X9463039Y-10261603D02*
X9472563Y-10299698D01*
X9472563Y-10299698D02*
X9472563Y-10328270D01*
X9472563Y-10328270D02*
X9463039Y-10366365D01*
X9463039Y-10366365D02*
X9453515Y-10385412D01*
X9453515Y-10385412D02*
X9434467Y-10404460D01*
X9434467Y-10404460D02*
X9405896Y-10413984D01*
X9405896Y-10413984D02*
X9358277Y-10413984D01*
X9558277Y-10413984D02*
X9558277Y-10280650D01*
X9558277Y-10318746D02*
X9567801Y-10299698D01*
X9567801Y-10299698D02*
X9577324Y-10290174D01*
X9577324Y-10290174D02*
X9596372Y-10280650D01*
X9596372Y-10280650D02*
X9615420Y-10280650D01*
X9682086Y-10413984D02*
X9682086Y-10280650D01*
X9682086Y-10213984D02*
X9672563Y-10223508D01*
X9672563Y-10223508D02*
X9682086Y-10233031D01*
X9682086Y-10233031D02*
X9691610Y-10223508D01*
X9691610Y-10223508D02*
X9682086Y-10213984D01*
X9682086Y-10213984D02*
X9682086Y-10233031D01*
X9805896Y-10413984D02*
X9786848Y-10404460D01*
X9786848Y-10404460D02*
X9777324Y-10385412D01*
X9777324Y-10385412D02*
X9777324Y-10213984D01*
X9910658Y-10413984D02*
X9891610Y-10404460D01*
X9891610Y-10404460D02*
X9882086Y-10385412D01*
X9882086Y-10385412D02*
X9882086Y-10213984D01*
X10139229Y-10413984D02*
X10139229Y-10213984D01*
X10139229Y-10213984D02*
X10205896Y-10356841D01*
X10205896Y-10356841D02*
X10272563Y-10213984D01*
X10272563Y-10213984D02*
X10272563Y-10413984D01*
X10453515Y-10413984D02*
X10453515Y-10309222D01*
X10453515Y-10309222D02*
X10443991Y-10290174D01*
X10443991Y-10290174D02*
X10424944Y-10280650D01*
X10424944Y-10280650D02*
X10386848Y-10280650D01*
X10386848Y-10280650D02*
X10367801Y-10290174D01*
X10453515Y-10404460D02*
X10434467Y-10413984D01*
X10434467Y-10413984D02*
X10386848Y-10413984D01*
X10386848Y-10413984D02*
X10367801Y-10404460D01*
X10367801Y-10404460D02*
X10358277Y-10385412D01*
X10358277Y-10385412D02*
X10358277Y-10366365D01*
X10358277Y-10366365D02*
X10367801Y-10347317D01*
X10367801Y-10347317D02*
X10386848Y-10337793D01*
X10386848Y-10337793D02*
X10434467Y-10337793D01*
X10434467Y-10337793D02*
X10453515Y-10328270D01*
X10548753Y-10280650D02*
X10548753Y-10480650D01*
X10548753Y-10290174D02*
X10567801Y-10280650D01*
X10567801Y-10280650D02*
X10605896Y-10280650D01*
X10605896Y-10280650D02*
X10624944Y-10290174D01*
X10624944Y-10290174D02*
X10634467Y-10299698D01*
X10634467Y-10299698D02*
X10643991Y-10318746D01*
X10643991Y-10318746D02*
X10643991Y-10375889D01*
X10643991Y-10375889D02*
X10634467Y-10394936D01*
X10634467Y-10394936D02*
X10624944Y-10404460D01*
X10624944Y-10404460D02*
X10605896Y-10413984D01*
X10605896Y-10413984D02*
X10567801Y-10413984D01*
X10567801Y-10413984D02*
X10548753Y-10404460D01*
X10729705Y-10394936D02*
X10739229Y-10404460D01*
X10739229Y-10404460D02*
X10729705Y-10413984D01*
X10729705Y-10413984D02*
X10720182Y-10404460D01*
X10720182Y-10404460D02*
X10729705Y-10394936D01*
X10729705Y-10394936D02*
X10729705Y-10413984D01*
X10729705Y-10290174D02*
X10739229Y-10299698D01*
X10739229Y-10299698D02*
X10729705Y-10309222D01*
X10729705Y-10309222D02*
X10720182Y-10299698D01*
X10720182Y-10299698D02*
X10729705Y-10290174D01*
X10729705Y-10290174D02*
X10729705Y-10309222D01*
D12*
X8997500Y-10692500D02*
X9097500Y-10792500D01*
X9097500Y-10692500D02*
X8997500Y-10792500D01*
D11*
X9463039Y-10833984D02*
X9348753Y-10833984D01*
X9405896Y-10833984D02*
X9405896Y-10633984D01*
X9405896Y-10633984D02*
X9386848Y-10662555D01*
X9386848Y-10662555D02*
X9367801Y-10681603D01*
X9367801Y-10681603D02*
X9348753Y-10691127D01*
X9548753Y-10814936D02*
X9558277Y-10824460D01*
X9558277Y-10824460D02*
X9548753Y-10833984D01*
X9548753Y-10833984D02*
X9539229Y-10824460D01*
X9539229Y-10824460D02*
X9548753Y-10814936D01*
X9548753Y-10814936D02*
X9548753Y-10833984D01*
X9682086Y-10633984D02*
X9701134Y-10633984D01*
X9701134Y-10633984D02*
X9720182Y-10643508D01*
X9720182Y-10643508D02*
X9729705Y-10653031D01*
X9729705Y-10653031D02*
X9739229Y-10672079D01*
X9739229Y-10672079D02*
X9748753Y-10710174D01*
X9748753Y-10710174D02*
X9748753Y-10757793D01*
X9748753Y-10757793D02*
X9739229Y-10795889D01*
X9739229Y-10795889D02*
X9729705Y-10814936D01*
X9729705Y-10814936D02*
X9720182Y-10824460D01*
X9720182Y-10824460D02*
X9701134Y-10833984D01*
X9701134Y-10833984D02*
X9682086Y-10833984D01*
X9682086Y-10833984D02*
X9663039Y-10824460D01*
X9663039Y-10824460D02*
X9653515Y-10814936D01*
X9653515Y-10814936D02*
X9643991Y-10795889D01*
X9643991Y-10795889D02*
X9634467Y-10757793D01*
X9634467Y-10757793D02*
X9634467Y-10710174D01*
X9634467Y-10710174D02*
X9643991Y-10672079D01*
X9643991Y-10672079D02*
X9653515Y-10653031D01*
X9653515Y-10653031D02*
X9663039Y-10643508D01*
X9663039Y-10643508D02*
X9682086Y-10633984D01*
X9872563Y-10633984D02*
X9891610Y-10633984D01*
X9891610Y-10633984D02*
X9910658Y-10643508D01*
X9910658Y-10643508D02*
X9920182Y-10653031D01*
X9920182Y-10653031D02*
X9929705Y-10672079D01*
X9929705Y-10672079D02*
X9939229Y-10710174D01*
X9939229Y-10710174D02*
X9939229Y-10757793D01*
X9939229Y-10757793D02*
X9929705Y-10795889D01*
X9929705Y-10795889D02*
X9920182Y-10814936D01*
X9920182Y-10814936D02*
X9910658Y-10824460D01*
X9910658Y-10824460D02*
X9891610Y-10833984D01*
X9891610Y-10833984D02*
X9872563Y-10833984D01*
X9872563Y-10833984D02*
X9853515Y-10824460D01*
X9853515Y-10824460D02*
X9843991Y-10814936D01*
X9843991Y-10814936D02*
X9834467Y-10795889D01*
X9834467Y-10795889D02*
X9824944Y-10757793D01*
X9824944Y-10757793D02*
X9824944Y-10710174D01*
X9824944Y-10710174D02*
X9834467Y-10672079D01*
X9834467Y-10672079D02*
X9843991Y-10653031D01*
X9843991Y-10653031D02*
X9853515Y-10643508D01*
X9853515Y-10643508D02*
X9872563Y-10633984D01*
X10063039Y-10633984D02*
X10082086Y-10633984D01*
X10082086Y-10633984D02*
X10101134Y-10643508D01*
X10101134Y-10643508D02*
X10110658Y-10653031D01*
X10110658Y-10653031D02*
X10120182Y-10672079D01*
X10120182Y-10672079D02*
X10129705Y-10710174D01*
X10129705Y-10710174D02*
X10129705Y-10757793D01*
X10129705Y-10757793D02*
X10120182Y-10795889D01*
X10120182Y-10795889D02*
X10110658Y-10814936D01*
X10110658Y-10814936D02*
X10101134Y-10824460D01*
X10101134Y-10824460D02*
X10082086Y-10833984D01*
X10082086Y-10833984D02*
X10063039Y-10833984D01*
X10063039Y-10833984D02*
X10043991Y-10824460D01*
X10043991Y-10824460D02*
X10034467Y-10814936D01*
X10034467Y-10814936D02*
X10024944Y-10795889D01*
X10024944Y-10795889D02*
X10015420Y-10757793D01*
X10015420Y-10757793D02*
X10015420Y-10710174D01*
X10015420Y-10710174D02*
X10024944Y-10672079D01*
X10024944Y-10672079D02*
X10034467Y-10653031D01*
X10034467Y-10653031D02*
X10043991Y-10643508D01*
X10043991Y-10643508D02*
X10063039Y-10633984D01*
X10215420Y-10833984D02*
X10215420Y-10700650D01*
X10215420Y-10719698D02*
X10224944Y-10710174D01*
X10224944Y-10710174D02*
X10243991Y-10700650D01*
X10243991Y-10700650D02*
X10272563Y-10700650D01*
X10272563Y-10700650D02*
X10291610Y-10710174D01*
X10291610Y-10710174D02*
X10301134Y-10729222D01*
X10301134Y-10729222D02*
X10301134Y-10833984D01*
X10301134Y-10729222D02*
X10310658Y-10710174D01*
X10310658Y-10710174D02*
X10329705Y-10700650D01*
X10329705Y-10700650D02*
X10358277Y-10700650D01*
X10358277Y-10700650D02*
X10377325Y-10710174D01*
X10377325Y-10710174D02*
X10386848Y-10729222D01*
X10386848Y-10729222D02*
X10386848Y-10833984D01*
X10482086Y-10833984D02*
X10482086Y-10700650D01*
X10482086Y-10719698D02*
X10491610Y-10710174D01*
X10491610Y-10710174D02*
X10510658Y-10700650D01*
X10510658Y-10700650D02*
X10539229Y-10700650D01*
X10539229Y-10700650D02*
X10558277Y-10710174D01*
X10558277Y-10710174D02*
X10567801Y-10729222D01*
X10567801Y-10729222D02*
X10567801Y-10833984D01*
X10567801Y-10729222D02*
X10577325Y-10710174D01*
X10577325Y-10710174D02*
X10596372Y-10700650D01*
X10596372Y-10700650D02*
X10624944Y-10700650D01*
X10624944Y-10700650D02*
X10643991Y-10710174D01*
X10643991Y-10710174D02*
X10653515Y-10729222D01*
X10653515Y-10729222D02*
X10653515Y-10833984D01*
X11043991Y-10624460D02*
X10872563Y-10881603D01*
X11301134Y-10633984D02*
X11320182Y-10633984D01*
X11320182Y-10633984D02*
X11339229Y-10643508D01*
X11339229Y-10643508D02*
X11348753Y-10653031D01*
X11348753Y-10653031D02*
X11358277Y-10672079D01*
X11358277Y-10672079D02*
X11367801Y-10710174D01*
X11367801Y-10710174D02*
X11367801Y-10757793D01*
X11367801Y-10757793D02*
X11358277Y-10795889D01*
X11358277Y-10795889D02*
X11348753Y-10814936D01*
X11348753Y-10814936D02*
X11339229Y-10824460D01*
X11339229Y-10824460D02*
X11320182Y-10833984D01*
X11320182Y-10833984D02*
X11301134Y-10833984D01*
X11301134Y-10833984D02*
X11282086Y-10824460D01*
X11282086Y-10824460D02*
X11272563Y-10814936D01*
X11272563Y-10814936D02*
X11263039Y-10795889D01*
X11263039Y-10795889D02*
X11253515Y-10757793D01*
X11253515Y-10757793D02*
X11253515Y-10710174D01*
X11253515Y-10710174D02*
X11263039Y-10672079D01*
X11263039Y-10672079D02*
X11272563Y-10653031D01*
X11272563Y-10653031D02*
X11282086Y-10643508D01*
X11282086Y-10643508D02*
X11301134Y-10633984D01*
X11453515Y-10814936D02*
X11463039Y-10824460D01*
X11463039Y-10824460D02*
X11453515Y-10833984D01*
X11453515Y-10833984D02*
X11443991Y-10824460D01*
X11443991Y-10824460D02*
X11453515Y-10814936D01*
X11453515Y-10814936D02*
X11453515Y-10833984D01*
X11586848Y-10633984D02*
X11605896Y-10633984D01*
X11605896Y-10633984D02*
X11624944Y-10643508D01*
X11624944Y-10643508D02*
X11634467Y-10653031D01*
X11634467Y-10653031D02*
X11643991Y-10672079D01*
X11643991Y-10672079D02*
X11653515Y-10710174D01*
X11653515Y-10710174D02*
X11653515Y-10757793D01*
X11653515Y-10757793D02*
X11643991Y-10795889D01*
X11643991Y-10795889D02*
X11634467Y-10814936D01*
X11634467Y-10814936D02*
X11624944Y-10824460D01*
X11624944Y-10824460D02*
X11605896Y-10833984D01*
X11605896Y-10833984D02*
X11586848Y-10833984D01*
X11586848Y-10833984D02*
X11567801Y-10824460D01*
X11567801Y-10824460D02*
X11558277Y-10814936D01*
X11558277Y-10814936D02*
X11548753Y-10795889D01*
X11548753Y-10795889D02*
X11539229Y-10757793D01*
X11539229Y-10757793D02*
X11539229Y-10710174D01*
X11539229Y-10710174D02*
X11548753Y-10672079D01*
X11548753Y-10672079D02*
X11558277Y-10653031D01*
X11558277Y-10653031D02*
X11567801Y-10643508D01*
X11567801Y-10643508D02*
X11586848Y-10633984D01*
X11720182Y-10633984D02*
X11843991Y-10633984D01*
X11843991Y-10633984D02*
X11777325Y-10710174D01*
X11777325Y-10710174D02*
X11805896Y-10710174D01*
X11805896Y-10710174D02*
X11824944Y-10719698D01*
X11824944Y-10719698D02*
X11834467Y-10729222D01*
X11834467Y-10729222D02*
X11843991Y-10748270D01*
X11843991Y-10748270D02*
X11843991Y-10795889D01*
X11843991Y-10795889D02*
X11834467Y-10814936D01*
X11834467Y-10814936D02*
X11824944Y-10824460D01*
X11824944Y-10824460D02*
X11805896Y-10833984D01*
X11805896Y-10833984D02*
X11748753Y-10833984D01*
X11748753Y-10833984D02*
X11729706Y-10824460D01*
X11729706Y-10824460D02*
X11720182Y-10814936D01*
X11939229Y-10833984D02*
X11977325Y-10833984D01*
X11977325Y-10833984D02*
X11996372Y-10824460D01*
X11996372Y-10824460D02*
X12005896Y-10814936D01*
X12005896Y-10814936D02*
X12024944Y-10786365D01*
X12024944Y-10786365D02*
X12034467Y-10748270D01*
X12034467Y-10748270D02*
X12034467Y-10672079D01*
X12034467Y-10672079D02*
X12024944Y-10653031D01*
X12024944Y-10653031D02*
X12015420Y-10643508D01*
X12015420Y-10643508D02*
X11996372Y-10633984D01*
X11996372Y-10633984D02*
X11958277Y-10633984D01*
X11958277Y-10633984D02*
X11939229Y-10643508D01*
X11939229Y-10643508D02*
X11929706Y-10653031D01*
X11929706Y-10653031D02*
X11920182Y-10672079D01*
X11920182Y-10672079D02*
X11920182Y-10719698D01*
X11920182Y-10719698D02*
X11929706Y-10738746D01*
X11929706Y-10738746D02*
X11939229Y-10748270D01*
X11939229Y-10748270D02*
X11958277Y-10757793D01*
X11958277Y-10757793D02*
X11996372Y-10757793D01*
X11996372Y-10757793D02*
X12015420Y-10748270D01*
X12015420Y-10748270D02*
X12024944Y-10738746D01*
X12024944Y-10738746D02*
X12034467Y-10719698D01*
X12205896Y-10700650D02*
X12205896Y-10833984D01*
X12158277Y-10624460D02*
X12110658Y-10767317D01*
X12110658Y-10767317D02*
X12234467Y-10767317D01*
X12301134Y-10633984D02*
X12301134Y-10672079D01*
X12377325Y-10633984D02*
X12377325Y-10672079D01*
X12672563Y-10910174D02*
X12663039Y-10900650D01*
X12663039Y-10900650D02*
X12643991Y-10872079D01*
X12643991Y-10872079D02*
X12634468Y-10853031D01*
X12634468Y-10853031D02*
X12624944Y-10824460D01*
X12624944Y-10824460D02*
X12615420Y-10776841D01*
X12615420Y-10776841D02*
X12615420Y-10738746D01*
X12615420Y-10738746D02*
X12624944Y-10691127D01*
X12624944Y-10691127D02*
X12634468Y-10662555D01*
X12634468Y-10662555D02*
X12643991Y-10643508D01*
X12643991Y-10643508D02*
X12663039Y-10614936D01*
X12663039Y-10614936D02*
X12672563Y-10605412D01*
X12739229Y-10653031D02*
X12748753Y-10643508D01*
X12748753Y-10643508D02*
X12767801Y-10633984D01*
X12767801Y-10633984D02*
X12815420Y-10633984D01*
X12815420Y-10633984D02*
X12834468Y-10643508D01*
X12834468Y-10643508D02*
X12843991Y-10653031D01*
X12843991Y-10653031D02*
X12853515Y-10672079D01*
X12853515Y-10672079D02*
X12853515Y-10691127D01*
X12853515Y-10691127D02*
X12843991Y-10719698D01*
X12843991Y-10719698D02*
X12729706Y-10833984D01*
X12729706Y-10833984D02*
X12853515Y-10833984D01*
X13091610Y-10833984D02*
X13091610Y-10633984D01*
X13177325Y-10833984D02*
X13177325Y-10729222D01*
X13177325Y-10729222D02*
X13167801Y-10710174D01*
X13167801Y-10710174D02*
X13148753Y-10700650D01*
X13148753Y-10700650D02*
X13120182Y-10700650D01*
X13120182Y-10700650D02*
X13101134Y-10710174D01*
X13101134Y-10710174D02*
X13091610Y-10719698D01*
X13301134Y-10833984D02*
X13282087Y-10824460D01*
X13282087Y-10824460D02*
X13272563Y-10814936D01*
X13272563Y-10814936D02*
X13263039Y-10795889D01*
X13263039Y-10795889D02*
X13263039Y-10738746D01*
X13263039Y-10738746D02*
X13272563Y-10719698D01*
X13272563Y-10719698D02*
X13282087Y-10710174D01*
X13282087Y-10710174D02*
X13301134Y-10700650D01*
X13301134Y-10700650D02*
X13329706Y-10700650D01*
X13329706Y-10700650D02*
X13348753Y-10710174D01*
X13348753Y-10710174D02*
X13358277Y-10719698D01*
X13358277Y-10719698D02*
X13367801Y-10738746D01*
X13367801Y-10738746D02*
X13367801Y-10795889D01*
X13367801Y-10795889D02*
X13358277Y-10814936D01*
X13358277Y-10814936D02*
X13348753Y-10824460D01*
X13348753Y-10824460D02*
X13329706Y-10833984D01*
X13329706Y-10833984D02*
X13301134Y-10833984D01*
X13482087Y-10833984D02*
X13463039Y-10824460D01*
X13463039Y-10824460D02*
X13453515Y-10805412D01*
X13453515Y-10805412D02*
X13453515Y-10633984D01*
X13634468Y-10824460D02*
X13615420Y-10833984D01*
X13615420Y-10833984D02*
X13577325Y-10833984D01*
X13577325Y-10833984D02*
X13558277Y-10824460D01*
X13558277Y-10824460D02*
X13548753Y-10805412D01*
X13548753Y-10805412D02*
X13548753Y-10729222D01*
X13548753Y-10729222D02*
X13558277Y-10710174D01*
X13558277Y-10710174D02*
X13577325Y-10700650D01*
X13577325Y-10700650D02*
X13615420Y-10700650D01*
X13615420Y-10700650D02*
X13634468Y-10710174D01*
X13634468Y-10710174D02*
X13643991Y-10729222D01*
X13643991Y-10729222D02*
X13643991Y-10748270D01*
X13643991Y-10748270D02*
X13548753Y-10767317D01*
X13720182Y-10824460D02*
X13739230Y-10833984D01*
X13739230Y-10833984D02*
X13777325Y-10833984D01*
X13777325Y-10833984D02*
X13796372Y-10824460D01*
X13796372Y-10824460D02*
X13805896Y-10805412D01*
X13805896Y-10805412D02*
X13805896Y-10795889D01*
X13805896Y-10795889D02*
X13796372Y-10776841D01*
X13796372Y-10776841D02*
X13777325Y-10767317D01*
X13777325Y-10767317D02*
X13748753Y-10767317D01*
X13748753Y-10767317D02*
X13729706Y-10757793D01*
X13729706Y-10757793D02*
X13720182Y-10738746D01*
X13720182Y-10738746D02*
X13720182Y-10729222D01*
X13720182Y-10729222D02*
X13729706Y-10710174D01*
X13729706Y-10710174D02*
X13748753Y-10700650D01*
X13748753Y-10700650D02*
X13777325Y-10700650D01*
X13777325Y-10700650D02*
X13796372Y-10710174D01*
X13872563Y-10910174D02*
X13882087Y-10900650D01*
X13882087Y-10900650D02*
X13901134Y-10872079D01*
X13901134Y-10872079D02*
X13910658Y-10853031D01*
X13910658Y-10853031D02*
X13920182Y-10824460D01*
X13920182Y-10824460D02*
X13929706Y-10776841D01*
X13929706Y-10776841D02*
X13929706Y-10738746D01*
X13929706Y-10738746D02*
X13920182Y-10691127D01*
X13920182Y-10691127D02*
X13910658Y-10662555D01*
X13910658Y-10662555D02*
X13901134Y-10643508D01*
X13901134Y-10643508D02*
X13882087Y-10614936D01*
X13882087Y-10614936D02*
X13872563Y-10605412D01*
M02*
