%TF.GenerationSoftware,KiCad,Pcbnew,8.0.4*%
%TF.CreationDate,2024-09-05T15:58:07-04:00*%
%TF.ProjectId,paddle_1,70616464-6c65-45f3-912e-6b696361645f,rev?*%
%TF.SameCoordinates,Original*%
%TF.FileFunction,Drillmap*%
%TF.FilePolarity,Positive*%
%FSLAX45Y45*%
G04 Gerber Fmt 4.5, Leading zero omitted, Abs format (unit mm)*
G04 Created by KiCad (PCBNEW 8.0.4) date 2024-09-05 15:58:07*
%MOMM*%
%LPD*%
G01*
G04 APERTURE LIST*
%ADD10C,0.050000*%
%ADD11C,0.200000*%
G04 APERTURE END LIST*
D10*
X9100000Y-10100000D02*
X9100000Y-9600000D01*
X9700000Y-9200000D02*
G75*
G02*
X9500000Y-9200000I-100000J0D01*
G01*
X9500000Y-9200000D02*
G75*
G02*
X9700000Y-9200000I100000J0D01*
G01*
X9300000Y-9400000D02*
X9300000Y-9000000D01*
X9450000Y-8600000D02*
G75*
G02*
X9250000Y-8600000I-100000J0D01*
G01*
X9250000Y-8600000D02*
G75*
G02*
X9450000Y-8600000I100000J0D01*
G01*
X9100000Y-9600000D02*
X9300000Y-9400000D01*
X18800000Y-8300000D02*
X18800000Y-10100000D01*
X9100000Y-8800000D02*
X9100000Y-8300000D01*
X9450000Y-9800000D02*
G75*
G02*
X9250000Y-9800000I-100000J0D01*
G01*
X9250000Y-9800000D02*
G75*
G02*
X9450000Y-9800000I100000J0D01*
G01*
X18800000Y-10100000D02*
X9100000Y-10100000D01*
X9300000Y-9000000D02*
X9100000Y-8800000D01*
X9100000Y-8300000D02*
X18800000Y-8300000D01*
D11*
X9358277Y-10413984D02*
X9358277Y-10213984D01*
X9358277Y-10213984D02*
X9405896Y-10213984D01*
X9405896Y-10213984D02*
X9434467Y-10223508D01*
X9434467Y-10223508D02*
X9453515Y-10242555D01*
X9453515Y-10242555D02*
X9463039Y-10261603D01*
X9463039Y-10261603D02*
X9472563Y-10299698D01*
X9472563Y-10299698D02*
X9472563Y-10328270D01*
X9472563Y-10328270D02*
X9463039Y-10366365D01*
X9463039Y-10366365D02*
X9453515Y-10385412D01*
X9453515Y-10385412D02*
X9434467Y-10404460D01*
X9434467Y-10404460D02*
X9405896Y-10413984D01*
X9405896Y-10413984D02*
X9358277Y-10413984D01*
X9558277Y-10413984D02*
X9558277Y-10280650D01*
X9558277Y-10318746D02*
X9567801Y-10299698D01*
X9567801Y-10299698D02*
X9577324Y-10290174D01*
X9577324Y-10290174D02*
X9596372Y-10280650D01*
X9596372Y-10280650D02*
X9615420Y-10280650D01*
X9682086Y-10413984D02*
X9682086Y-10280650D01*
X9682086Y-10213984D02*
X9672563Y-10223508D01*
X9672563Y-10223508D02*
X9682086Y-10233031D01*
X9682086Y-10233031D02*
X9691610Y-10223508D01*
X9691610Y-10223508D02*
X9682086Y-10213984D01*
X9682086Y-10213984D02*
X9682086Y-10233031D01*
X9805896Y-10413984D02*
X9786848Y-10404460D01*
X9786848Y-10404460D02*
X9777324Y-10385412D01*
X9777324Y-10385412D02*
X9777324Y-10213984D01*
X9910658Y-10413984D02*
X9891610Y-10404460D01*
X9891610Y-10404460D02*
X9882086Y-10385412D01*
X9882086Y-10385412D02*
X9882086Y-10213984D01*
X10139229Y-10413984D02*
X10139229Y-10213984D01*
X10139229Y-10213984D02*
X10205896Y-10356841D01*
X10205896Y-10356841D02*
X10272563Y-10213984D01*
X10272563Y-10213984D02*
X10272563Y-10413984D01*
X10453515Y-10413984D02*
X10453515Y-10309222D01*
X10453515Y-10309222D02*
X10443991Y-10290174D01*
X10443991Y-10290174D02*
X10424944Y-10280650D01*
X10424944Y-10280650D02*
X10386848Y-10280650D01*
X10386848Y-10280650D02*
X10367801Y-10290174D01*
X10453515Y-10404460D02*
X10434467Y-10413984D01*
X10434467Y-10413984D02*
X10386848Y-10413984D01*
X10386848Y-10413984D02*
X10367801Y-10404460D01*
X10367801Y-10404460D02*
X10358277Y-10385412D01*
X10358277Y-10385412D02*
X10358277Y-10366365D01*
X10358277Y-10366365D02*
X10367801Y-10347317D01*
X10367801Y-10347317D02*
X10386848Y-10337793D01*
X10386848Y-10337793D02*
X10434467Y-10337793D01*
X10434467Y-10337793D02*
X10453515Y-10328270D01*
X10548753Y-10280650D02*
X10548753Y-10480650D01*
X10548753Y-10290174D02*
X10567801Y-10280650D01*
X10567801Y-10280650D02*
X10605896Y-10280650D01*
X10605896Y-10280650D02*
X10624944Y-10290174D01*
X10624944Y-10290174D02*
X10634467Y-10299698D01*
X10634467Y-10299698D02*
X10643991Y-10318746D01*
X10643991Y-10318746D02*
X10643991Y-10375889D01*
X10643991Y-10375889D02*
X10634467Y-10394936D01*
X10634467Y-10394936D02*
X10624944Y-10404460D01*
X10624944Y-10404460D02*
X10605896Y-10413984D01*
X10605896Y-10413984D02*
X10567801Y-10413984D01*
X10567801Y-10413984D02*
X10548753Y-10404460D01*
X10729705Y-10394936D02*
X10739229Y-10404460D01*
X10739229Y-10404460D02*
X10729705Y-10413984D01*
X10729705Y-10413984D02*
X10720182Y-10404460D01*
X10720182Y-10404460D02*
X10729705Y-10394936D01*
X10729705Y-10394936D02*
X10729705Y-10413984D01*
X10729705Y-10290174D02*
X10739229Y-10299698D01*
X10739229Y-10299698D02*
X10729705Y-10309222D01*
X10729705Y-10309222D02*
X10720182Y-10299698D01*
X10720182Y-10299698D02*
X10729705Y-10290174D01*
X10729705Y-10290174D02*
X10729705Y-10309222D01*
M02*
