%TF.GenerationSoftware,KiCad,Pcbnew,8.0.4*%
%TF.CreationDate,2024-09-05T15:58:04-04:00*%
%TF.ProjectId,paddle_1,70616464-6c65-45f3-912e-6b696361645f,rev?*%
%TF.SameCoordinates,Original*%
%TF.FileFunction,Copper,L2,Bot*%
%TF.FilePolarity,Positive*%
%FSLAX46Y46*%
G04 Gerber Fmt 4.6, Leading zero omitted, Abs format (unit mm)*
G04 Created by KiCad (PCBNEW 8.0.4) date 2024-09-05 15:58:04*
%MOMM*%
%LPD*%
G01*
G04 APERTURE LIST*
%TA.AperFunction,ComponentPad*%
%ADD10R,1.700000X1.700000*%
%TD*%
%TA.AperFunction,ComponentPad*%
%ADD11O,1.700000X1.700000*%
%TD*%
%TA.AperFunction,Conductor*%
%ADD12C,0.508000*%
%TD*%
G04 APERTURE END LIST*
D10*
%TO.P,J1,1,Pin_1*%
%TO.N,unconnected-(J1-Pin_1-Pad1)*%
X100000000Y-93275000D03*
D11*
%TO.P,J1,2,Pin_2*%
%TO.N,unconnected-(J1-Pin_2-Pad2)*%
X100000000Y-90735000D03*
%TD*%
D12*
%TO.N,unconnected-(J1-Pin_2-Pad2)*%
X128000000Y-83754000D02*
X128000000Y-99000000D01*
X108000000Y-83754000D02*
X110000000Y-83754000D01*
X158000000Y-83754000D02*
X160000000Y-83754000D01*
X102746000Y-83754000D02*
X106000000Y-83754000D01*
X120000000Y-83754000D02*
X120000000Y-99000000D01*
X166000000Y-83754000D02*
X168000000Y-83754000D01*
X184000000Y-83754000D02*
X186000000Y-83754000D01*
X162000000Y-83754000D02*
X164000000Y-83754000D01*
X148000000Y-83754000D02*
X148000000Y-99000000D01*
X178000000Y-83754000D02*
X178000000Y-99000000D01*
X118000000Y-83754000D02*
X118000000Y-99000000D01*
X164000000Y-83754000D02*
X166000000Y-83754000D01*
X178000000Y-83754000D02*
X180000000Y-83754000D01*
X150000000Y-83754000D02*
X152000000Y-83754000D01*
X114000000Y-83754000D02*
X114000000Y-99000000D01*
X142000000Y-83754000D02*
X142000000Y-99000000D01*
X128000000Y-83754000D02*
X130000000Y-83754000D01*
X162000000Y-83754000D02*
X162000000Y-99000000D01*
X124000000Y-83754000D02*
X126000000Y-83754000D01*
X160000000Y-83754000D02*
X162000000Y-83754000D01*
X138000000Y-83754000D02*
X138000000Y-99000000D01*
X116000000Y-83754000D02*
X116000000Y-99000000D01*
X110000000Y-83754000D02*
X112000000Y-83754000D01*
X112000000Y-83754000D02*
X112000000Y-99000000D01*
X140000000Y-83754000D02*
X140000000Y-99000000D01*
X176000000Y-83754000D02*
X176000000Y-99000000D01*
X144000000Y-83754000D02*
X146000000Y-83754000D01*
X136000000Y-83754000D02*
X136000000Y-99000000D01*
X122000000Y-83754000D02*
X122000000Y-99000000D01*
X158000000Y-83754000D02*
X158000000Y-99000000D01*
X114000000Y-83754000D02*
X116000000Y-83754000D01*
X176000000Y-83754000D02*
X178000000Y-83754000D01*
X164000000Y-83754000D02*
X164000000Y-99000000D01*
X156000000Y-83754000D02*
X158000000Y-83754000D01*
X112000000Y-83754000D02*
X114000000Y-83754000D01*
X146000000Y-83754000D02*
X146000000Y-99000000D01*
X134000000Y-83754000D02*
X136000000Y-83754000D01*
X126000000Y-83754000D02*
X126000000Y-99000000D01*
X136000000Y-83754000D02*
X138000000Y-83754000D01*
X138000000Y-83754000D02*
X140000000Y-83754000D01*
X126000000Y-83754000D02*
X128000000Y-83754000D01*
X168000000Y-83754000D02*
X168000000Y-99000000D01*
X108000000Y-83754000D02*
X108000000Y-99000000D01*
X180000000Y-83754000D02*
X180000000Y-99000000D01*
X170000000Y-83754000D02*
X170000000Y-98000000D01*
X132000000Y-83754000D02*
X132000000Y-99000000D01*
X154000000Y-83754000D02*
X156000000Y-83754000D01*
X130000000Y-83754000D02*
X132000000Y-83754000D01*
X172000000Y-83754000D02*
X174000000Y-83754000D01*
X152000000Y-83754000D02*
X152000000Y-99000000D01*
X160000000Y-83754000D02*
X160000000Y-99000000D01*
X142000000Y-83754000D02*
X144000000Y-83754000D01*
X100000000Y-86500000D02*
X102746000Y-83754000D01*
X182000000Y-83754000D02*
X184000000Y-83754000D01*
X170000000Y-98000000D02*
X170000000Y-99000000D01*
X110000000Y-83754000D02*
X110000000Y-99000000D01*
X118000000Y-83754000D02*
X120000000Y-83754000D01*
X116000000Y-83754000D02*
X118000000Y-83754000D01*
X148000000Y-83754000D02*
X150000000Y-83754000D01*
X146000000Y-83754000D02*
X148000000Y-83754000D01*
X106000000Y-83754000D02*
X106000000Y-99000000D01*
X170000000Y-83754000D02*
X172000000Y-83754000D01*
X180000000Y-83754000D02*
X182000000Y-83754000D01*
X150000000Y-83754000D02*
X150000000Y-99000000D01*
X122000000Y-83754000D02*
X124000000Y-83754000D01*
X174000000Y-83754000D02*
X174000000Y-99000000D01*
X100000000Y-90735000D02*
X100000000Y-86500000D01*
X144000000Y-83754000D02*
X144000000Y-99000000D01*
X186000000Y-83754000D02*
X186000000Y-99000000D01*
X130000000Y-83754000D02*
X130000000Y-99000000D01*
X132000000Y-83754000D02*
X134000000Y-83754000D01*
X174000000Y-83754000D02*
X176000000Y-83754000D01*
X172000000Y-83754000D02*
X172000000Y-99000000D01*
X166000000Y-83754000D02*
X166000000Y-99000000D01*
X156000000Y-83754000D02*
X156000000Y-99000000D01*
X140000000Y-83754000D02*
X142000000Y-83754000D01*
X152000000Y-83754000D02*
X154000000Y-83754000D01*
X182000000Y-83754000D02*
X182000000Y-99000000D01*
X106000000Y-83754000D02*
X108000000Y-83754000D01*
X168000000Y-83754000D02*
X170000000Y-83754000D01*
X154000000Y-83754000D02*
X154000000Y-99000000D01*
X184000000Y-83754000D02*
X184000000Y-99000000D01*
X134000000Y-83754000D02*
X134000000Y-99000000D01*
X120000000Y-83754000D02*
X122000000Y-83754000D01*
X124000000Y-83754000D02*
X124000000Y-99000000D01*
%TO.N,unconnected-(J1-Pin_1-Pad1)*%
X163000000Y-100000000D02*
X165000000Y-100000000D01*
X153000000Y-100000000D02*
X153000000Y-85000000D01*
X145000000Y-100000000D02*
X147000000Y-100000000D01*
X107000000Y-100000000D02*
X107000000Y-85000000D01*
X185000000Y-100000000D02*
X185000000Y-85000000D01*
X157000000Y-100000000D02*
X159000000Y-100000000D01*
X111000000Y-100000000D02*
X111000000Y-85000000D01*
X123000000Y-100000000D02*
X123000000Y-85000000D01*
X159000000Y-100000000D02*
X161000000Y-100000000D01*
X169000000Y-100000000D02*
X171000000Y-100000000D01*
X145000000Y-100000000D02*
X145000000Y-85000000D01*
X185000000Y-100000000D02*
X187000000Y-100000000D01*
X100000000Y-93275000D02*
X100000000Y-97500000D01*
X121000000Y-100000000D02*
X123000000Y-100000000D01*
X187000000Y-100000000D02*
X187000000Y-85000000D01*
X113000000Y-100000000D02*
X113000000Y-85000000D01*
X167000000Y-86000000D02*
X167000000Y-85000000D01*
X133000000Y-86000000D02*
X133000000Y-85000000D01*
X165000000Y-100000000D02*
X167000000Y-100000000D01*
X109000000Y-100000000D02*
X111000000Y-100000000D01*
X119000000Y-100000000D02*
X119000000Y-85000000D01*
X181000000Y-100000000D02*
X181000000Y-85000000D01*
X135000000Y-100000000D02*
X135000000Y-85000000D01*
X133000000Y-100000000D02*
X135000000Y-100000000D01*
X143000000Y-100000000D02*
X145000000Y-100000000D01*
X153000000Y-100000000D02*
X155000000Y-100000000D01*
X183000000Y-100000000D02*
X183000000Y-85000000D01*
X151000000Y-100000000D02*
X153000000Y-100000000D01*
X113000000Y-100000000D02*
X115000000Y-100000000D01*
X139000000Y-100000000D02*
X139000000Y-85000000D01*
X171000000Y-86000000D02*
X171000000Y-85000000D01*
X125000000Y-100000000D02*
X125000000Y-85000000D01*
X115000000Y-100000000D02*
X115000000Y-85000000D01*
X131000000Y-100000000D02*
X131000000Y-85000000D01*
X175000000Y-100000000D02*
X177000000Y-100000000D01*
X177000000Y-100000000D02*
X177000000Y-85000000D01*
X161000000Y-100000000D02*
X161000000Y-86000000D01*
X181000000Y-100000000D02*
X183000000Y-100000000D01*
X179000000Y-100000000D02*
X179000000Y-85000000D01*
X157000000Y-100000000D02*
X157000000Y-85000000D01*
X159000000Y-100000000D02*
X159000000Y-85000000D01*
X165000000Y-100000000D02*
X165000000Y-85000000D01*
X141000000Y-100000000D02*
X143000000Y-100000000D01*
X175000000Y-100000000D02*
X175000000Y-85000000D01*
X155000000Y-100000000D02*
X157000000Y-100000000D01*
X147000000Y-100000000D02*
X149000000Y-100000000D01*
X117000000Y-100000000D02*
X119000000Y-100000000D01*
X147000000Y-100000000D02*
X147000000Y-85000000D01*
X173000000Y-100000000D02*
X173000000Y-85000000D01*
X177000000Y-100000000D02*
X179000000Y-100000000D01*
X179000000Y-100000000D02*
X181000000Y-100000000D01*
X161000000Y-100000000D02*
X163000000Y-100000000D01*
X149000000Y-100000000D02*
X151000000Y-100000000D01*
X163000000Y-100000000D02*
X163000000Y-85000000D01*
X183000000Y-100000000D02*
X185000000Y-100000000D01*
X115000000Y-100000000D02*
X117000000Y-100000000D01*
X173000000Y-100000000D02*
X175000000Y-100000000D01*
X109000000Y-100000000D02*
X109000000Y-85000000D01*
X119000000Y-100000000D02*
X121000000Y-100000000D01*
X171000000Y-100000000D02*
X171000000Y-86000000D01*
X105000000Y-100000000D02*
X107000000Y-100000000D01*
X133000000Y-100000000D02*
X133000000Y-86000000D01*
X139000000Y-100000000D02*
X141000000Y-100000000D01*
X107000000Y-100000000D02*
X109000000Y-100000000D01*
X129000000Y-100000000D02*
X131000000Y-100000000D01*
X151000000Y-100000000D02*
X151000000Y-85000000D01*
X121000000Y-100000000D02*
X121000000Y-85000000D01*
X167000000Y-100000000D02*
X169000000Y-100000000D01*
X171000000Y-100000000D02*
X173000000Y-100000000D01*
X161000000Y-86000000D02*
X161000000Y-85000000D01*
X137000000Y-100000000D02*
X137000000Y-85000000D01*
X125000000Y-100000000D02*
X127000000Y-100000000D01*
X111000000Y-100000000D02*
X113000000Y-100000000D01*
X169000000Y-100000000D02*
X169000000Y-85000000D01*
X135000000Y-100000000D02*
X137000000Y-100000000D01*
X149000000Y-100000000D02*
X149000000Y-85000000D01*
X129000000Y-100000000D02*
X129000000Y-85000000D01*
X143000000Y-100000000D02*
X143000000Y-85000000D01*
X137000000Y-100000000D02*
X139000000Y-100000000D01*
X100000000Y-97500000D02*
X102500000Y-100000000D01*
X117000000Y-100000000D02*
X117000000Y-85000000D01*
X127000000Y-100000000D02*
X129000000Y-100000000D01*
X141000000Y-100000000D02*
X141000000Y-85000000D01*
X102500000Y-100000000D02*
X105000000Y-100000000D01*
X131000000Y-100000000D02*
X133000000Y-100000000D01*
X155000000Y-100000000D02*
X155000000Y-85000000D01*
X105000000Y-100000000D02*
X105000000Y-85000000D01*
X167000000Y-100000000D02*
X167000000Y-86000000D01*
X127000000Y-100000000D02*
X127000000Y-85000000D01*
X123000000Y-100000000D02*
X125000000Y-100000000D01*
%TD*%
M02*
